<svg id="Layer_1" enable-background="new 0 0 512 512" height="512" viewBox="0 0 512 512" width="512" xmlns="http://www.w3.org/2000/svg"><g><g><path d="m178.96 175.535h13.782v21.868c0 8.505 10.454 13.135 16.747 7.381l31.997-29.249h26.139l31.997 29.249c6.293 5.754 16.747 1.113 16.747-7.381v-21.868h14.479c17.552 0 31.832-14.279 31.832-31.831v-111.637c0-17.553-14.28-31.832-31.832-31.832h-151.888c-17.552 0-31.831 14.279-31.831 31.832v111.637c0 17.552 14.28 31.831 31.831 31.831zm-11.831-143.468c0-6.524 5.308-11.832 11.831-11.832h151.887c6.524 0 11.832 5.308 11.832 11.832v111.637c0 6.523-5.308 11.831-11.832 11.831h-24.479c-5.522 0-10 4.478-10 10v9.179l-18.115-16.56c-1.843-1.685-4.25-2.619-6.747-2.619h-33.902c-2.497 0-4.904.935-6.747 2.619l-18.115 16.56v-9.179c0-5.522-4.477-10-10-10h-23.782c-6.523 0-11.831-5.308-11.831-11.831z"/><path d="m502 311.225h-9.332v-26.013h9.014c5.522 0 10-4.478 10-10v-46.011c0-5.522-4.478-10-10-10h-157.31c-5.522 0-10 4.478-10 10v36.011h-9.014c-5.522 0-10 4.478-10 10v36.013h-117.725v-36.013c0-5.522-4.477-10-10-10h-5.197v-36.011c0-5.522-4.477-10-10-10h-157.31c-5.523 0-10 4.478-10 10v46.011c0 5.522 4.477 10 10 10h5.197v26.013h-10.323c-5.523 0-10 4.478-10 10v46.171c0 5.522 4.477 10 10 10h58.823c13.254-.492 13.244-19.513 0-20h-48.823v-26.171h472v26.171h-335.226c-13.254.492-13.244 19.513 0 20h81.836l-48.069 82.6c-.889 1.527-1.357 3.264-1.357 5.03v26.739h-25.249c-13.254.492-13.244 19.513 0 20h184.607c13.254-.492 13.244-19.512 0-20h-25.726v-26.739c0-1.767-.468-3.503-1.357-5.03l-48.069-82.6h228.61c5.522 0 10-4.478 10-10v-46.171c0-5.523-4.478-10-10-10zm-476.874-72.024h137.31v26.011h-137.31zm152.507 72.023h-137.309v-26.012h137.31v26.012zm295.035 0h-137.31v-26.012h137.31zm19.014-46.012h-137.31v-26.011h137.31zm-188.866 202.512v24.041h-93.632v-24.041l46.816-80.447z"/><path d="m232.325 123.403c4.578 2.995 8.261 4.573 12.179 5.375-.638 6.019 3.799 11.588 10 11.544 5.522 0 10-4.477 10-10v-2.71c14.988-5.386 22.789-25.479 13.477-39.207-3.838-5.791-9.532-8.786-15.918-11.011-4.391-1.529-9.854-3.433-11.156-4.854-2.217-2.423-.515-5.804 2.163-6.896 3.644-1.486 6.194.529 7.123 1.464-.102-.102-.15-.162-.15-.162l.026-.023c9.151 9.547 23.358-3.213 14.832-13.334l.016-.014c-2.123-2.362-5.747-5.164-10.411-6.886v-2.337c0-5.522-4.478-10-10-10-5.523 0-10 4.478-10 10v3.223c-7.131 3.271-12.34 9.576-14.025 17.074-1.717 7.639.404 15.637 5.674 21.396 4.71 5.146 11.486 7.506 19.331 10.238 3.44 1.198 7.192 2.369 6.429 6.9-.394 2.343-2.411 6.316-7.477 6.35-5.779.052-7.017-.152-11.164-2.864-4.621-3.025-10.819-1.728-13.843 2.894-3.024 4.62-1.728 10.818 2.894 13.84z"/><path d="m111.239 357.426c-4.178.311-7.76 3.278-8.892 7.3-2.406 8.551 7.216 15.749 14.771 11.244 4.197-2.503 5.968-7.895 4.093-12.401-1.643-3.939-5.706-6.462-9.972-6.143z"/></g></g></svg>