<?xml version="1.0" encoding="iso-8859-1"?>
<!-- Generator: Adobe Illustrator 19.0.0, SVG Export Plug-In . SVG Version: 6.00 Build 0)  -->
<svg version="1.1" id="Capa_1" xmlns="http://www.w3.org/2000/svg" xmlns:xlink="http://www.w3.org/1999/xlink" x="0px" y="0px"
	 viewBox="0 0 512 512" style="enable-background:new 0 0 512 512;" xml:space="preserve">
<g>
	<g>
		<path d="M511.94,290.084c-0.637-11.443-6.282-21.922-15.485-28.75c-14.895-11.05-35.557-9.898-49.132,2.742l-82.525,76.856
			c0.714-16.611-9.944-31.878-26-36.796l-67.936-20.802c-23.275-7.128-48.631-6.31-71.397,2.303l-95.108,35.975l-15.359-15.359
			c-5.874-5.875-13.685-9.11-21.992-9.11s-16.118,3.235-21.992,9.109L2.929,348.338C1.054,350.214,0,352.757,0,355.409
			c0,2.652,1.054,5.195,2.929,7.071l146.343,146.343c1.953,1.952,4.512,2.929,7.071,2.929s5.118-0.977,7.071-2.929l42.085-42.084
			c0,0,0,0,0-0.001c12.125-12.126,12.125-31.856,0-43.983l-85.627-85.626l86.669-32.783c18.643-7.053,39.403-7.724,58.467-1.887
			l67.935,20.802c7.642,2.341,12.61,9.81,11.816,17.762c-0.862,8.638-8.061,15.152-16.742,15.152h-69.716c-5.522,0-10,4.478-10,10
			c0,5.522,4.478,10,10,10l93.995,0.07c2.529,0,4.965-0.958,6.815-2.682l101.845-94.849c6.516-6.068,16.435-6.62,23.586-1.316
			c4.418,3.277,7.127,8.308,7.433,13.801c0.307,5.493-1.828,10.793-5.854,14.542L367.713,415.964
			c-8.168,7.603-18.812,11.79-29.969,11.79h-53.757c-5.522,0-10,4.478-10,10c0,5.522,4.478,10,10,10h53.757
			c16.231,0,31.713-6.091,43.596-17.151l118.404-110.227C508.133,312.568,512.578,301.528,511.94,290.084z M191.356,436.896
			c4.328,4.329,4.328,11.373,0,15.701l-35.014,35.014L24.142,355.409l35.014-35.014c2.097-2.097,4.885-3.251,7.85-3.251
			c2.965,0,5.753,1.154,7.85,3.252L191.356,436.896z"/>
	</g>
</g>
<g>
	<g>
		<path d="M250.707,430.684c-1.86-1.861-4.441-2.93-7.07-2.93c-2.64,0-5.21,1.069-7.07,2.93c-1.87,1.86-2.93,4.44-2.93,7.07
			s1.06,5.21,2.93,7.069c1.86,1.86,4.44,2.931,7.07,2.931s5.21-1.07,7.07-2.931c1.859-1.859,2.93-4.439,2.93-7.069
			S252.567,432.544,250.707,430.684z"/>
	</g>
</g>
<g>
	<g>
		<path d="M158.608,440.684c-1.859-1.86-4.439-2.93-7.07-2.93c-2.63,0-5.21,1.069-7.069,2.93c-1.86,1.86-2.931,4.44-2.931,7.07
			s1.07,5.21,2.931,7.069c1.859,1.861,4.439,2.931,7.069,2.931c2.631,0,5.211-1.07,7.07-2.931c1.86-1.859,2.93-4.439,2.93-7.069
			S160.469,442.544,158.608,440.684z"/>
	</g>
</g>
<g>
	<g>
		<path d="M453.656,0.249h-24.764c-5.522,0-10,4.478-10,10c0,5.522,4.478,10,10,10h0.622L375.37,74.392
			c-4.629-2.364-9.863-3.707-15.408-3.707c-18.748,0-33.999,15.252-33.999,33.999c0,5.545,1.343,10.779,3.707,15.408l-57.727,57.726
			c-13.03-6.903-29.263-4.583-39.827,5.899l-65.466-30.35c2.068-15.171-6.378-30.392-21.247-36.236
			c-17.449-6.858-37.222,1.758-44.08,19.207c-3.767,9.584-2.857,19.865,1.612,28.325L56.578,211.02
			c-3.905,3.905-3.905,10.237,0,14.143c1.955,1.952,4.514,2.929,7.073,2.929c2.56,0,5.118-0.977,7.071-2.929l46.344-46.344
			c1.114,0.588,2.267,1.126,3.466,1.598c13.547,5.325,28.491,1.318,37.709-8.905l64.439,29.874
			c-2.329,12.104,2.007,25.069,12.345,33.2c14.736,11.59,36.153,9.03,47.742-5.706c8.557-10.88,9.392-25.397,3.317-36.917
			l57.498-57.497c4.862,2.685,10.445,4.218,16.382,4.218c18.748,0,33.999-15.252,33.999-33.999c0-5.937-1.533-11.52-4.218-16.382
			l53.913-53.912v0.621c0,5.522,4.478,10,10,10s10-4.478,10-10V10.249C463.656,4.727,459.178,0.249,453.656,0.249z M145.999,153.895
			c-2.824,7.185-10.966,10.732-18.151,7.909c-7.185-2.824-10.733-10.967-7.909-18.151c2.824-7.185,10.966-10.732,18.151-7.909
			C145.275,138.568,148.822,146.71,145.999,153.895z M267.048,216.517c-4.772,6.068-13.591,7.122-19.659,2.35
			c-6.068-4.772-7.122-13.591-2.35-19.659c4.772-6.068,13.591-7.122,19.659-2.35S271.82,210.449,267.048,216.517z M359.964,118.685
			c-7.72,0-14-6.28-14-14s6.28-14,14-14c7.72,0,14,6.28,14,14S367.684,118.685,359.964,118.685z"/>
	</g>
</g>
<g>
	<g>
		<path d="M419.122,131.23c-1.86-1.86-4.44-2.93-7.07-2.93s-5.209,1.069-7.07,2.93c-1.859,1.86-2.93,4.44-2.93,7.07
			s1.07,5.21,2.93,7.069c1.87,1.87,4.44,2.94,7.07,2.94s5.21-1.07,7.07-2.94c1.859-1.859,2.93-4.439,2.93-7.069
			S420.982,133.09,419.122,131.23z"/>
	</g>
</g>
<g>
	<g>
		<path d="M391.192,159.168c-3.904-3.903-10.234-3.904-14.142,0l-56.812,56.812c-3.905,3.905-3.905,10.237,0,14.143
			c1.953,1.952,4.512,2.929,7.071,2.929s5.118-0.977,7.071-2.929l56.812-56.812C395.097,169.406,395.097,163.074,391.192,159.168z"
			/>
	</g>
</g>
<g>
</g>
<g>
</g>
<g>
</g>
<g>
</g>
<g>
</g>
<g>
</g>
<g>
</g>
<g>
</g>
<g>
</g>
<g>
</g>
<g>
</g>
<g>
</g>
<g>
</g>
<g>
</g>
<g>
</g>
</svg>
