<?xml version="1.0" encoding="utf-8"?>
<!-- Generator: Adobe Illustrator 16.0.0, SVG Export Plug-In . SVG Version: 6.00 Build 0)  -->
<!DOCTYPE svg PUBLIC "-//W3C//DTD SVG 1.1//EN" "http://www.w3.org/Graphics/SVG/1.1/DTD/svg11.dtd">
<svg version="1.1" id="Layer_1" xmlns="http://www.w3.org/2000/svg" xmlns:xlink="http://www.w3.org/1999/xlink" x="0px" y="0px"
	 width="512px" height="512px" viewBox="0 0 512 512" enable-background="new 0 0 512 512" xml:space="preserve">
<path fill="#FFC107" d="M476.8,247L393.4,177.9c-5-4.1-12.301-3.4-16.4,1.5c-4.1,5-3.4,12.3,1.5,16.4l58.5,48.5H42.7
	c-6.4,0-11.7,5.2-11.7,11.7c0,6.4,5.2,11.7,11.7,11.7H437l-58.5,48.5c-5,4.1-5.6,11.5-1.5,16.399c2.3,2.801,5.6,4.2,9,4.2
	c2.6,0,5.3-0.899,7.4-2.7L476.8,265c2.7-2.2,4.2-5.5,4.2-9S479.5,249.2,476.8,247L476.8,247z"/>
</svg>
